<svg version="1.1"  xmlns="http://www.w3.org/2000/svg" xmlns:xlink="http://www.w3.org/1999/xlink" width="88px" x="0px" y="0px" viewBox="0 0 821.901 367.596">
<path style="fill:#73C9BE;" d="M548.951,48.239c0,76.939,44.576,150.824,61.673,177.081c4.274,6.106,10.991,9.77,18.319,9.77 h112.965c7.938,0,14.044-3.664,18.319-9.77C777.324,199.674,821.9,125.178,821.9,48.239 C822.511,48.239,548.951,48.239,548.951,48.239z"/>
<path style="fill:#73C9BE;" d="M56.788,354.773c-7.938,0-14.044-2.443-18.319-7.938c-4.274-4.885-6.106-12.212-6.106-21.372 c0-9.159,1.832-16.487,5.496-22.593c3.664-5.496,9.77-8.549,18.319-8.549c4.274,0,9.159,1.221,15.876,3.664l3.053-9.77 c-6.106-2.443-12.823-3.664-18.929-3.664c-11.602,0-20.761,3.664-26.867,10.991c-6.106,7.938-9.159,17.097-9.159,29.31 c0,12.212,3.664,21.372,9.159,28.699c6.106,6.717,15.266,10.991,26.257,10.991h0.611c6.717,0,13.434-1.221,19.54-4.274 l-2.442-10.381C68.39,353.551,62.894,354.773,56.788,354.773z M133.727,284.551c-10.991,0-19.54,3.664-25.036,10.991 c-6.106,7.938-9.159,16.487-9.159,29.31s3.053,21.372,9.159,29.31s14.044,10.991,25.036,10.991s19.54-3.664,25.036-10.991 c6.106-7.938,9.159-16.487,9.159-29.31s-3.053-21.372-9.159-29.31C152.656,288.825,144.718,284.551,133.727,284.551z  M149.603,346.834c-3.664,5.496-9.159,7.938-16.487,7.938c-6.717,0-12.823-3.053-16.487-7.938 c-3.664-5.496-4.885-12.823-4.885-21.372l0,0c0-9.159,1.832-16.487,5.496-21.372c3.664-5.496,9.159-7.938,16.487-7.938 c6.717,0,12.823,3.053,16.487,7.938c3.664,5.496,5.496,12.823,5.496,21.372C155.709,334.011,153.267,340.728,149.603,346.834z  M232.648,329.126c4.885-0.611,9.159-3.053,12.212-6.106c3.664-3.664,4.885-7.938,4.885-14.655c0-7.938-3.053-13.434-7.938-16.487 c-4.885-3.664-12.823-5.496-22.593-5.496h-20.151v77.549h11.602V332.79h6.717c3.053,0,4.885,0.611,6.717,1.832 c1.832,1.221,3.664,3.664,4.885,6.106l12.212,22.593h12.823l-12.212-23.814C238.754,333.401,235.701,330.348,232.648,329.126z  M219.214,323.02h-8.549v-26.867h8.549c6.106,0,10.991,0.611,14.044,3.053c3.664,2.443,4.885,5.496,4.885,10.381 c0,4.885-1.832,7.938-4.885,10.381S225.32,323.02,219.214,323.02z M328.516,293.1c-5.496-4.274-13.434-6.717-23.204-6.717h-20.761 v77.549h11.602v-26.257h9.159c9.77,0,17.097-1.832,23.204-6.717c5.496-4.274,8.549-10.991,8.549-19.54 C337.064,303.48,334.011,297.374,328.516,293.1z M319.967,323.631c-3.664,2.443-7.938,3.664-14.655,3.664h-9.159v-31.752h9.159 c6.106,0,10.991,1.221,14.655,3.664c3.664,2.443,4.885,6.717,4.885,12.212C324.852,317.525,323.631,321.799,319.967,323.631z"/>
<path style="fill:#142032;" d="M559.332,240.586c-0.611-0.611-1.221-1.221-1.832-1.832 C558.11,239.365,558.721,239.975,559.332,240.586z"/>
<path style="fill:#142032;" d="M460.411,79.992L460.411,79.992h26.257c3.053,15.266,7.938,36.027,15.876,59.231 c-7.938-23.204-13.434-43.965-15.876-59.231C487.278,79.992,460.411,79.992,460.411,79.992z"/>
<path style="fill:#142032;" d="M529.411,302.259L529.411,302.259c6.717-10.991,12.823-21.982,18.319-33.584 C542.845,280.276,536.739,291.268,529.411,302.259z"/>
<path style="fill:#142032;" d="M561.164,243.028c-3.664,6.717-6.717,13.434-9.77,20.151 C554.447,255.852,558.11,249.135,561.164,243.028L561.164,243.028z"/>
<path style="fill:#142032;" d="M647.262,103.806c7.938-33.584,10.991-55.567,10.991-55.567h-39.08 c-2.443,19.54-6.717,41.522-12.213,65.337c-0.611,1.832-0.611,3.664-1.221,4.885c-5.496,20.761-12.213,42.744-20.151,64.726 c-3.053,7.938-5.496,15.266-9.159,23.814l0,0l0,0c-0.611-0.611-0.611-0.611-1.221-1.221c-0.611-0.611-0.611-0.611-0.611-0.611 c-6.717-10.991-16.487-28.699-26.867-52.514c-0.611-0.611-0.611-1.221-0.611-1.832c-1.221-3.664-3.053-6.717-3.664-10.381 c-9.159-25.036-17.097-56.177-20.761-90.983V48.85h-62.284v31.142h26.257c3.053,15.266,7.938,36.027,15.876,59.231 c10.381,29.31,26.867,63.505,51.292,95.868c0.611,1.221,1.832,2.443,3.664,3.664c0.611,0.611,1.221,1.221,1.832,1.832 s1.221,1.221,1.832,1.832l0,0l0,0c-3.664,6.717-6.717,13.434-9.77,20.151c-0.611,1.832-1.832,4.274-3.664,6.106 c-5.496,10.991-11.602,22.593-18.319,33.584h34.806c7.938-11.602,15.266-24.425,21.982-36.637 c7.938-14.044,14.655-28.699,20.761-42.744c7.938-18.319,14.655-36.027,20.151-53.124c0.611-3.664,2.443-6.717,3.664-10.381 c0.611-3.664,1.832-6.717,3.664-9.77c3.053-9.77,5.496-19.54,7.938-28.089c1.221-5.496,3.053-10.991,4.274-15.876 C647.262,104.417,647.262,104.417,647.262,103.806z"/>
<circle style="fill:#142032;" cx="534.296" cy="343.781" r="23.814"/>
<circle style="fill:#142032;" cx="749.236" cy="343.781" r="23.814"/>
<path style="fill:#142032;" d="M91.594,247.913c-40.301,0-63.505-20.761-63.505-68.39V78.771H0V47.018h28.089V1.832L67.779,0v47.018 h48.85v31.752h-48.85v100.142c0,25.646,10.991,36.027,30.531,36.027c7.938,0,16.487-0.611,22.593-3.053l2.442,31.752 C113.576,246.081,103.806,247.913,91.594,247.913z"/>
<path style="fill:#142032;" d="M244.25,42.744c10.991,0,20.761,0.611,28.089,3.053l-5.496,32.974 c-5.496-1.832-13.434-3.053-19.54-3.053c-19.54,0-34.195,4.274-45.186,9.77v157.541h-39.691V61.062 C183.187,50.071,214.329,42.744,244.25,42.744z"/>
<path style="fill:#142032;" d="M364.543,247.913c-51.292,0-76.939-24.425-76.939-58.62c0-40.301,32.363-59.841,76.939-59.841 c13.434,0,29.31,1.221,40.912,4.274V117.24c0-26.867-15.266-41.522-45.186-41.522c-18.319,0-36.637,3.664-51.903,9.77l-7.938-31.142 c15.876-6.717,40.301-11.602,63.505-11.602c53.735,0,79.992,28.089,79.992,76.328v111.134 C428.047,239.365,401.18,247.913,364.543,247.913z M405.454,210.665v-50.682c-10.991-3.053-23.204-4.885-36.637-4.885 c-24.425,0-42.133,8.549-42.133,32.363c0,20.761,15.266,31.142,40.912,31.142C385.304,218.603,398.738,214.94,405.454,210.665z"/>
</svg>
