<?xml version="1.0" encoding="utf-8"?>
<!-- Generator: Adobe Illustrator 17.0.0, SVG Export Plug-In . SVG Version: 6.00 Build 0)  -->
<!DOCTYPE svg PUBLIC "-//W3C//DTD SVG 1.1//EN" "http://www.w3.org/Graphics/SVG/1.1/DTD/svg11.dtd">
<svg version="1.1" id="Camada_1" xmlns="http://www.w3.org/2000/svg" xmlns:xlink="http://www.w3.org/1999/xlink" x="0px" y="0px"
	 width="310px" height="120px" viewBox="-154.5 4.5 310 120" enable-background="new -154.5 4.5 310 120" xml:space="preserve">
<path fill="#FFFFFF" d="M60.618,47.025c0.602,0.865,0.564,1.692,0.451,2.52c-0.301,2.407-0.978,4.663-2.031,6.845
	c-2.106,4.287-4.25,8.575-6.845,12.561c-2.219,3.422-4.814,6.506-7.822,9.289c-1.391,1.279-2.971,2.219-4.739,2.896
	c-1.956,0.752-3.874,0.752-5.716-0.263c-1.768-0.978-3.46-2.031-5.115-3.159c-1.843-1.316-2.294-3.272-2.256-5.415
	c0.075-3.159,0.903-6.13,1.805-9.139c0.639-2.144,1.316-4.287,1.993-6.393c0.075-0.226,0.113-0.451,0.188-0.752
	c-0.527,0.038-0.752,0.376-1.015,0.639c-4.4,4.137-8.349,8.687-11.658,13.802c-2.181,3.347-4.287,6.694-6.431,10.041
	c-0.188,0.301-0.414,0.639-0.639,0.94c-0.715,0.865-1.504,1.015-2.369,0.338c-0.527-0.414-1.053-0.903-1.354-1.467
	c-1.015-1.805-2.068-3.61-2.933-5.528c-2.219-4.851-4.325-9.778-6.506-14.667c-0.188-0.414-0.376-0.79-0.677-1.391
	c-0.301,0.527-0.489,0.865-0.677,1.241c-3.61,7.033-7.258,14.103-10.869,21.135c-0.376,0.715-0.752,1.391-1.166,2.068
	c-0.564,0.865-1.053,1.053-1.88,0.489c-1.504-0.978-2.933-2.068-4.062-3.422c-1.166-1.391-1.166-2.933-0.414-4.475
	c0.903-1.805,1.88-3.535,2.896-5.303c3.761-6.544,7.258-13.2,10.455-20.045c0.075-0.15,0.15-0.338,0.338-0.752
	c-0.338,0.226-0.451,0.301-0.564,0.414c-1.429,1.542-3.159,2.708-5.002,3.723c-3.836,2.144-7.898,3.686-12.072,5.002
	c-1.053,0.338-2.106,0.677-3.159,0.978c-1.203,0.338-2.031,1.053-2.633,2.144c-3.761,7.07-7.409,14.178-10.718,21.474
	c-0.414,0.903-0.94,1.73-1.504,2.52c-0.677,0.903-1.241,0.978-2.106,0.226c-1.58-1.316-3.009-2.745-4.212-4.475
	c-0.376-0.564-0.489-1.166-0.414-1.843c0.113-1.467,0.752-2.745,1.429-4.024c2.896-5.227,5.829-10.455,8.687-15.72
	c3.46-6.469,6.356-13.163,9.214-19.894c0.527-1.203,0.79-2.52,1.128-3.798c0.15-0.489,0.188-0.978,0.338-1.429
	c0.376-1.203,0.79-1.354,1.956-0.865c0.188,0.075,0.338,0.15,0.489,0.263c1.429,0.865,2.858,1.692,4.287,2.595
	c0.677,0.414,1.166,0.94,1.354,1.655c2.031,0.602,3.986,1.128,5.942,1.768c2.144,0.715,4.099,1.73,6.017,2.971
	c1.354,0.903,2.444,1.918,2.595,3.761c0.15-0.226,0.338-0.451,0.451-0.715c1.203-2.858,2.444-5.716,3.61-8.575
	c0.338-0.865,0.564-1.805,0.827-2.708c0.075-0.226,0.075-0.451,0.15-0.677c0.451-1.655,1.053-1.993,2.52-1.166
	c1.956,1.091,4.024,1.956,5.641,3.573c0.263,0.263,0.752,0.338,1.166,0.414c1.993,0.489,3.986,0.903,5.942,1.467
	c2.633,0.752,5.115,1.956,7.371,3.498c2.031,1.391,2.181,2.369,0.639,4.287c-0.639,0.827-1.429,1.58-2.219,2.256
	c-2.068,1.768-4.362,3.121-6.807,4.287c-1.918,0.903-3.874,1.768-5.792,2.633c-0.338,0.15-0.677,0.338-1.128,0.527
	c1.73,3.949,3.46,7.86,5.227,11.884c0.338-0.376,0.602-0.639,0.827-0.94c5.039-6.769,11.019-12.636,17.412-18.052
	c2.106-1.805,4.362-3.422,6.469-5.19c0.752-0.639,1.354-1.429,1.993-2.181c0.639-0.752,1.203-1.58,1.843-2.332
	c0.301-0.338,0.602-0.677,0.978-0.94c1.354-1.015,2.256-1.053,3.61-0.038c2.407,1.73,4.663,3.648,6.619,5.904
	c0.188,0.226,0.414,0.451,0.564,0.715c0.263,0.338,0.564,0.752,0.226,1.128c-0.226,0.263-0.752,0.338-1.128,0.301
	c-0.451,0-0.865-0.226-1.316-0.338c-0.865-0.301-1.58-0.075-2.106,0.639c-0.414,0.527-0.827,1.091-1.203,1.655
	c-3.573,5.604-6.356,11.546-8.123,17.939c-0.715,2.595-1.279,5.227-1.504,7.935c0,0.188,0,0.376,0,0.677
	c0.903-0.226,1.58-0.715,2.219-1.203c3.46-2.67,6.318-5.904,8.499-9.703c2.933-5.115,5.378-10.455,7.07-16.096
	c0.113-0.451,0.226-0.865,0.301-1.316c0.263-1.504-0.075-2.858-1.091-4.024c-0.978-1.166-1.956-2.294-2.933-3.498
	c-0.263-0.301-0.489-0.677-0.602-1.091c-0.15-0.527,0.15-0.827,0.677-0.715c0.376,0.075,0.715,0.263,1.053,0.451
	c1.504,0.865,3.009,1.768,4.551,2.595c2.557,1.391,5.265,2.144,8.198,1.88c2.482-0.226,4.739-1.091,6.769-2.482
	c0.489-0.338,0.827-0.94,1.166-1.504c0.564-0.978,0.752-1.091,1.655-0.489c2.031,1.354,3.836,2.971,5.265,4.964
	c0.752,1.053,0.865,2.068,0.414,3.309c-3.009,7.898-6.506,15.607-9.816,23.354c-0.451,1.053-0.79,2.181-1.203,3.309
	c0.677,0.226,1.015-0.113,1.316-0.451c0.827-0.903,1.655-1.768,2.407-2.745c6.243-7.973,12.373-16.021,17.751-24.633
	c1.128-1.805,2.256-3.61,2.557-5.792c0.113-0.752,0.527-0.94,1.241-0.715c0.414,0.113,0.79,0.301,1.128,0.527
	c1.504,0.903,3.009,1.768,4.475,2.745c1.617,1.091,2.031,2.407,1.391,4.25c-0.338,0.978-0.752,1.918-1.241,2.821
	c-0.827,1.542-1.655,3.084-2.633,4.513c-1.504,2.219-2.482,4.663-3.121,7.258c-0.188,0.827-0.451,1.655-0.715,2.595
	c0.301-0.038,0.489,0,0.677-0.075c2.67-0.903,4.851-2.256,5.98-5.115c1.768-4.513,3.986-8.838,6.694-12.899
	c0.79-1.166,1.58-2.332,2.482-3.385c0.827-0.903,1.805-1.73,2.821-2.444c1.58-1.091,3.347-1.203,5.115-0.602
	c2.708,0.903,5.265,2.144,7.672,3.686c1.805,1.128,2.745,2.708,2.407,4.889c-0.15,0.827-0.489,1.692-0.903,2.444
	c-0.489,0.865-1.091,1.655-1.73,2.407c-2.407,2.783-5.152,5.152-8.311,6.995c-3.46,2.031-6.92,4.099-10.38,6.13
	c-0.715,0.414-1.166,0.903-1.429,1.692c-0.94,3.121-1.918,6.243-2.821,9.364c-0.113,0.414-0.338,1.015-0.226,1.467
	c0.226,0.527,1.091,0.79,1.617,0.752c2.821-0.301,6.356-0.639,10.004-1.316c11.997-2.633,23.166-5.265,35.201-8.763
	c1.015-0.414,1.768-0.602,2.369-0.715c0.79-0.075,1.128,0.338,1.128,0.903c-0.15,2.068-0.263,2.444-0.715,4.287
	c-0.338,0.903-0.865,1.843-2.068,2.482c-1.279,0.715-3.61,1.391-4.964,1.993c-7.935,2.369-11.282,3.046-20.308,5.19
	c-6.205,1.429-8.537,1.993-15.193,3.497c-3.009,0.414-5.491,0.639-7.333,0.527c-1.316-0.075-2.444-0.564-3.422-1.391
	c-1.58-1.391-2.933-2.933-4.099-4.701c-0.715-1.091-0.903-2.256-0.602-3.498c0.489-1.918,1.015-3.798,1.542-5.792
	c-0.226,0.075-0.489,0.113-0.677,0.226c-0.376,0.188-0.715,0.414-1.091,0.602c-1.091,0.526-2.068,0.376-2.933-0.451
	c-1.091-1.091-2.106-2.181-3.159-3.272c-0.226-0.226-0.489-0.489-0.827-0.827c-0.414,0.414-0.79,0.79-1.128,1.203
	c-2.444,2.896-4.889,5.829-7.333,8.687c-1.542,1.805-3.197,3.573-4.776,5.34c-1.015,1.091-2.181,1.993-3.573,2.557
	c-1.542,0.639-3.009,0.527-4.438-0.414c-2.106-1.354-3.874-3.009-5.416-4.964c-0.94-1.166-1.053-2.444-0.602-3.836
	c2.219-7.033,4.851-13.877,7.446-20.759c1.053-2.783,2.106-5.604,3.159-8.424c0.038-0.113,0.038-0.226,0.075-0.338
	c-1.203,0.226-2.332,0.527-3.535,0.639C63.175,47.063,62.009,46.987,60.618,47.025z M0.032,51.312
	c1.843-0.639,3.422-1.128,4.964-1.692c2.407-0.865,4.701-1.88,6.845-3.272c0.451-0.301,0.865-0.602,1.241-0.978
	c0.865-0.865,0.752-1.467-0.376-1.956c-0.639-0.263-1.316-0.414-1.993-0.451c-1.843-0.075-3.723-0.038-5.566-0.15
	c-1.166-0.075-1.73,0.489-2.144,1.467c-0.865,2.031-1.768,4.024-2.67,6.017C0.333,50.523,0.258,50.748,0.032,51.312z
	 M-23.924,44.844c-1.279,2.783-2.557,5.491-3.798,8.198c0.15,0.038,0.226,0.075,0.263,0.038c4.174-1.316,8.198-2.896,11.846-5.415
	c0.301-0.226,0.602-0.451,0.865-0.715c0.677-0.752,0.602-1.166-0.263-1.692c-0.903-0.527-1.918-0.677-2.971-0.639
	C-19.938,44.656-21.893,44.769-23.924,44.844z M107.477,55.9c0.301-0.113,0.489-0.15,0.639-0.226c2.67-1.504,5.19-3.272,7.409-5.415
	c1.316-1.279,2.144-2.821,2.708-4.551c0.188-0.602,0.226-1.279,0.188-1.88c-0.038-0.827-0.527-1.015-1.279-0.639
	c-0.263,0.15-0.527,0.338-0.752,0.527c-0.94,0.903-1.918,1.73-2.745,2.708c-2.332,2.708-4.212,5.716-5.942,8.838
	C107.627,55.412,107.59,55.562,107.477,55.9z"/>
<path fill="#FFFFFF" d="M-77.364,53.832c0.414-0.075,0.715-0.075,1.053-0.15c3.686-0.827,7.409-1.655,11.094-2.482
	c0.451-0.113,0.827-0.226,1.053-0.715c1.655-3.911,3.385-7.785,4.964-11.734c0.414-1.053,0.489-2.294,0.715-3.422
	c0.075-0.376,0.038-0.752,0.15-1.128c0.226-0.903,0.79-1.241,1.692-0.903c0.451,0.188,0.903,0.451,1.241,0.752
	c1.241,1.053,2.633,1.993,3.648,3.234c0.827,0.978,1.73,1.166,2.821,1.316c3.009,0.451,5.942,1.279,8.612,2.745
	c0.865,0.451,1.692,1.015,2.407,1.692c1.993,1.918,2.407,4.701,1.203,7.221c-0.827,1.73-2.144,3.009-3.798,3.986
	c-1.768,1.015-3.648,1.692-5.641,2.106c-3.686,0.752-7.371,1.504-11.057,2.181c-0.978,0.188-1.542,0.564-1.993,1.504
	c-3.723,7.597-7.484,15.156-11.282,22.715c-0.263,0.527-0.602,1.053-0.978,1.504c-0.489,0.602-1.015,0.639-1.58,0.113
	c-1.241-1.128-2.52-2.219-3.61-3.46c-1.241-1.354-1.241-2.971-0.451-4.551c1.73-3.422,3.498-6.807,5.19-10.229
	c1.128-2.219,2.181-4.475,3.347-6.882c-0.338,0.038-0.527,0-0.677,0.038c-2.933,0.715-5.904,1.429-8.838,2.106
	c-0.715,0.15-1.053,0.489-1.241,1.241c-1.429,6.845-2.933,13.652-4.4,20.459c-1.429,6.694-2.858,13.351-4.174,20.045
	c-1.091,5.716-1.993,11.433-3.009,17.149c-0.075,0.338-0.113,0.677-0.188,1.015c-0.263,0.827-0.827,1.091-1.58,0.602
	c-0.677-0.451-1.391-0.978-1.88-1.617c-1.279-1.655-2.444-3.385-3.61-5.115c-0.527-0.79-0.715-1.73-0.602-2.708
	c0.075-0.564,0.113-1.128,0.226-1.692c0.79-4.513,1.58-9.063,2.444-13.539c1.128-5.754,2.332-11.508,3.573-17.262
	c0.903-4.25,1.843-8.537,2.783-12.787c0.301-1.279,0.602-2.557,0.94-3.949c-0.451,0.075-0.79,0.113-1.091,0.188
	c-4.099,0.865-8.236,1.768-12.335,2.595c-0.752,0.15-1.166,0.489-1.542,1.128c-3.798,6.544-7.634,13.087-11.47,19.631
	c-0.376,0.639-0.827,1.279-1.241,1.88c-0.338,0.451-0.79,0.564-1.279,0.263s-0.978-0.602-1.354-1.015
	c-1.203-1.354-2.369-2.745-3.498-4.174c-0.94-1.241-1.015-2.557-0.113-3.911c2.294-3.573,4.551-7.183,6.807-10.756
	c0.188-0.301,0.376-0.639,0.677-1.128c-0.639,0.075-1.053,0.113-1.504,0.188c-6.506,0.978-13.05,1.993-19.556,2.933
	c-2.557,0.376-5.115,0.564-7.71,0.414c-1.166-0.075-2.181-0.414-2.933-1.279c-0.79-0.903-1.58-1.843-2.219-2.858
	c-0.677-1.128-0.338-1.88,0.903-2.256c0.827-0.226,1.692-0.376,2.557-0.451c8.386-0.715,16.773-1.542,25.084-2.858
	c3.385-0.527,6.694-1.241,10.079-1.805c0.602-0.113,0.903-0.451,1.203-0.903c2.407-3.648,4.776-7.296,7.221-10.906
	c7.898-11.809,15.833-23.618,23.73-35.426c0.263-0.376,0.527-0.752,0.79-1.091c0.827-1.015,1.354-2.144,1.354-3.535
	c-0.038-1.203,0.677-1.58,1.73-0.94c2.482,1.467,4.438,3.422,5.491,6.168c0.263,0.677,0.338,1.316,0.15,1.993
	c-0.489,1.956-1.015,3.911-1.467,5.829c-0.79,3.197-1.617,6.393-2.332,9.628c-1.504,6.995-2.933,14.028-4.4,21.06
	C-77.176,52.441-77.252,53.08-77.364,53.832z M-79.658,28.56c-0.075-0.038-0.15-0.038-0.226-0.075
	c-0.113,0.113-0.226,0.188-0.301,0.301c-6.092,9.552-12.147,19.142-18.24,28.695c0,0.038,0,0.075,0,0.113
	c0,0.038,0.038,0.075,0.075,0.113c3.798-0.79,7.634-1.617,11.433-2.407c0.489-0.113,0.677-0.338,0.79-0.827
	c0.79-3.159,1.58-6.318,2.407-9.477c1.166-4.663,2.369-9.327,3.535-14.028C-79.997,30.177-79.809,29.387-79.658,28.56z
	 M-55.063,50.786c0.338-0.038,0.527-0.038,0.715-0.075c2.407-0.489,4.814-0.978,7.221-1.542c0.94-0.226,1.88-0.564,2.745-1.015
	c0.639-0.338,1.241-0.865,1.692-1.429c0.602-0.752,0.451-1.203-0.451-1.542c-0.376-0.15-0.79-0.263-1.203-0.338
	c-2.52-0.451-5.039-0.451-7.559-0.301c-0.564,0.038-0.903,0.263-1.091,0.79C-53.672,47.1-54.348,48.83-55.063,50.786z"/>
</svg>
